<svg viewBox="0 0 200 200" xmlns="http://www.w3.org/2000/svg">
  <circle cx="100" cy="100" r="90" fill="#A1CFC0" />
  <g transform="translate(50, 50)">
    <path d="M23.6,56.4V13.6h12.1c4.1,0,7.2,0.8,9.1,2.3c2,1.5,3,3.8,3,6.9c0,1.7-0.4,3.1-1.3,4.4c-0.9,1.3-2.1,2.2-3.7,2.8v0.3
      c2.1,0.5,3.8,1.5,4.9,3c1.1,1.5,1.7,3.4,1.7,5.6c0,3.4-1.1,6-3.4,7.9c-2.2,1.9-5.3,2.8-9.3,2.8H23.6z M31.7,31.8h4.8
      c2.2,0,3.8-0.4,4.8-1.2c1-0.8,1.5-2,1.5-3.8c0-1.7-0.5-2.9-1.6-3.6s-2.7-1.1-5-1.1h-4.6V31.8z M31.7,38v10h5.9c2.2,0,3.8-0.5,4.9-1.4
      c1.1-0.9,1.6-2.3,1.6-4.1c0-1.7-0.5-3-1.6-3.9c-1.1-0.9-2.7-1.3-4.9-1.3h-5.8V38z" fill="#000"/>
    <path d="M65.1,56.4V13.6h12.1c4.1,0,7.2,0.8,9.1,2.3c2,1.5,3,3.8,3,6.9c0,1.7-0.4,3.1-1.3,4.4c-0.9,1.3-2.1,2.2-3.7,2.8v0.3
      c2.1,0.5,3.8,1.5,4.9,3c1.1,1.5,1.7,3.4,1.7,5.6c0,3.4-1.1,6-3.4,7.9c-2.2,1.9-5.3,2.8-9.3,2.8H65.1z M73.2,31.8H78
      c2.2,0,3.8-0.4,4.8-1.2c1-0.8,1.5-2,1.5-3.8c0-1.7-0.5-2.9-1.6-3.6s-2.7-1.1-5-1.1h-4.6V31.8z M73.2,38v10h5.9
      c2.2,0,3.8-0.5,4.9-1.4c1.1-0.9,1.6-2.3,1.6-4.1c0-1.7-0.5-3-1.6-3.9c-1.1-0.9-2.7-1.3-4.9-1.3h-5.8V38z" fill="#000"/>
  </g>
  <g transform="translate(45, 100)">
    <path d="M9.6,16c-1.2,0-2.3-0.2-3.2-0.7c-0.9-0.5-1.6-1.1-2.1-2c-0.5-0.9-0.8-1.9-0.8-3.1c0-1.2,0.3-2.2,0.8-3.1
      c0.5-0.9,1.3-1.5,2.2-2c0.9-0.5,2-0.7,3.2-0.7c1,0,1.9,0.2,2.7,0.5c0.8,0.3,1.5,0.8,2,1.5l-2.1,1.9c-0.7-0.8-1.6-1.2-2.6-1.2
      c-0.8,0-1.5,0.3-2,0.8c-0.5,0.5-0.8,1.2-0.8,2.2c0,0.9,0.3,1.7,0.8,2.2c0.5,0.5,1.2,0.8,2,0.8c1,0,1.8-0.4,2.6-1.2l2.1,1.9
      c-0.5,0.6-1.2,1.1-2,1.5C11.5,15.8,10.6,16,9.6,16z" fill="#000"/>
    <path d="M15.3,15.8V4.7h3.2v11.1H15.3z" fill="#000"/>
    <path d="M28.5,15.8l-3.1-4.1l-1.4,1.5v2.6h-3.2V4.7h3.2v5.5L28,4.7h3.9l-4.4,4.8l4.5,6.4H28.5z" fill="#000"/>
    <path d="M41.4,4.7v11.1h-3.2v-4.6h-4.5v4.6h-3.2V4.7h3.2v4h4.5v-4H41.4z" fill="#000"/>
  </g>
  <path d="M88,58 L112,83 L100,95 L70,65 L88,58 Z" fill="#8B4513" />
  <path d="M90,85 L90,120 L120,130 L125,95 L90,85 Z" fill="#5B8C5A" />
  <path d="M120,130 L90,120 L85,145 L115,150 L120,130 Z" fill="#5B8C5A" />
  <rect x="115" y="90" width="10" height="40" fill="#8B4513" />
  <path d="M125,90 C125,90 130,100 130,110 C130,120 125,130 125,130" fill="none" stroke="#8B4513" stroke-width="2" />
  <path d="M125,90 C125,90 120,100 120,110 C120,120 125,130 125,130" fill="none" stroke="#8B4513" stroke-width="2" />
  <path d="M120,93 C120,93 115,100 115,110 C115,120 120,127 120,127" fill="none" stroke="#8B4513" stroke-width="2" />
  <path d="M129,93 C129,93 135,100 135,110 C135,120 129,127 129,127" fill="none" stroke="#8B4513" stroke-width="2" />
</svg>